<?xml version="1.0" standalone="no"?>
<!DOCTYPE svg PUBLIC "-//W3C//DTD SVG 20010904//EN"
 "http://www.w3.org/TR/2001/REC-SVG-20010904/DTD/svg10.dtd">
<svg version="1.0" xmlns="http://www.w3.org/2000/svg"
 width="427.000000pt" height="164.000000pt" viewBox="0 0 427.000000 164.000000"
 preserveAspectRatio="xMidYMid meet">

<g transform="translate(0.000000,164.000000) scale(0.100000,-0.100000)"
fill="#000000" stroke="none">
<path d="M500 1310 l0 -200 -200 0 -200 0 0 -295 0 -295 200 0 200 0 0 -200 0
-200 295 0 295 0 0 200 0 200 200 0 200 0 0 295 0 295 -200 0 -200 0 0 200 0
200 -295 0 -295 0 0 -200z m560 -25 l0 -205 200 0 200 0 0 -265 0 -265 -200 0
-200 0 0 -200 0 -200 -265 0 -265 0 0 200 0 200 -205 0 -205 0 0 265 0 265
205 0 205 0 0 205 0 205 265 0 265 0 0 -205z"/>
<path d="M590 1228 l0 -208 -205 0 -205 0 0 -205 0 -205 205 0 205 0 0 -205 0
-205 205 0 205 0 0 205 0 205 205 0 205 0 0 205 0 205 -205 0 -205 0 0 208 0
207 -205 0 -205 0 0 -207z m389 -206 c6 -49 11 -103 11 -120 l0 -32 75 0 c57
0 75 -3 75 -14 0 -15 -42 -26 -101 -26 -38 0 -39 -1 -39 -35 0 -41 -22 -47
-48 -15 -16 20 -19 20 -65 4 -65 -22 -125 -14 -154 21 -13 14 -23 33 -23 40 0
12 -7 11 -32 -5 -18 -11 -44 -20 -57 -20 -23 0 -24 -1 -16 -57 13 -101 12
-127 -7 -131 -25 -5 -36 25 -47 136 -6 55 -18 119 -27 142 -14 35 -15 43 -3
50 7 5 17 6 21 4 5 -3 22 6 38 20 17 13 38 27 49 31 31 9 71 -12 83 -45 10
-29 11 -30 28 -15 12 11 32 15 61 13 38 -3 45 -7 54 -32 8 -24 6 -31 -15 -48
-18 -14 -34 -18 -57 -15 -40 7 -45 -14 -11 -50 29 -31 118 -29 118 3 0 11 21
29 58 49 1 1 -5 54 -14 119 -13 96 -14 119 -3 132 21 26 35 -5 48 -104z m-228
-309 c12 -15 12 -16 -6 -9 -36 13 -40 11 -43 -21 -4 -38 2 -40 55 -14 21 11
47 22 58 26 16 5 17 8 5 15 -9 5 -19 5 -27 -2 -17 -13 -31 -2 -16 13 6 6 23 9
39 7 27 -3 29 -7 32 -49 3 -46 3 -46 -30 -47 -18 0 -38 4 -46 10 -9 8 -16 8
-24 0 -19 -19 -46 -14 -64 13 -34 52 29 105 67 58z m169 7 c0 -5 -7 -10 -15
-10 -11 0 -15 -11 -15 -40 0 -22 -4 -40 -10 -40 -5 0 -10 23 -10 50 0 47 2 50
25 50 14 0 25 -4 25 -10z m84 -13 c13 -21 -5 -37 -43 -37 -20 0 -22 -3 -13
-12 10 -10 17 -10 31 -1 23 14 35 5 20 -14 -28 -33 -79 -4 -79 44 0 43 61 57
84 20z"/>
<path d="M615 945 c-14 -13 -25 -36 -25 -50 0 -21 5 -25 30 -25 40 0 68 40 52
75 -14 31 -27 31 -57 0z"/>
<path d="M770 925 c-12 -15 -10 -16 21 -13 37 3 46 21 13 26 -11 2 -27 -4 -34
-13z"/>
<path d="M794 665 c-18 -15 -18 -15 5 -13 14 2 26 9 29 16 5 17 -10 15 -34 -3z"/>
<path d="M956 713 c-12 -12 -5 -23 14 -23 11 0 20 4 20 9 0 11 -26 22 -34 14z"/>
<path d="M2843 1059 c-89 -17 -152 -74 -178 -161 -25 -84 -21 -87 63 -57 33
12 32 13 33 -28 1 -25 4 -16 9 28 10 80 31 124 70 144 42 22 82 19 124 -10
l36 -24 0 44 c0 32 -5 47 -17 53 -29 15 -95 20 -140 11z"/>
<path d="M1652 823 l3 -238 57 -3 57 -3 3 98 3 98 73 6 c86 6 121 28 140 85
27 80 -14 161 -94 183 -21 6 -85 11 -142 11 l-102 0 2 -237z m206 151 c53 -34
10 -134 -58 -134 l-30 0 0 73 c0 41 3 77 6 80 9 9 53 -2 82 -19z"/>
<path d="M2020 835 l0 -224 60 21 60 20 0 69 0 69 71 0 70 0 -3 33 -3 32 -67
3 -68 3 0 63 c0 46 4 65 14 69 8 3 73 3 145 0 l131 -6 0 -119 c0 -65 4 -118 8
-118 5 0 29 7 55 16 l47 16 0 88 c0 119 1 120 66 120 47 0 54 3 54 19 0 53 12
51 -326 51 l-314 0 0 -225z"/>
<path d="M3167 1028 c-2 -18 -3 -35 -1 -37 6 -6 124 31 124 39 0 18 -29 30
-71 30 -45 0 -47 -1 -52 -32z"/>
<path d="M3580 989 c0 -5 5 -7 10 -4 6 3 10 8 10 11 0 2 -4 4 -10 4 -5 0 -10
-5 -10 -11z"/>
<path d="M3980 989 c0 -5 5 -7 10 -4 6 3 10 8 10 11 0 2 -4 4 -10 4 -5 0 -10
-5 -10 -11z"/>
<path d="M4108 993 c6 -2 18 -2 25 0 6 3 1 5 -13 5 -14 0 -19 -2 -12 -5z"/>
<path d="M3197 930 c-39 -111 -49 -170 -12 -70 14 36 23 70 21 75 -2 6 -6 3
-9 -5z"/>
<path d="M3793 870 c-8 -22 -24 -36 -52 -48 -23 -9 -41 -20 -41 -25 0 -4 18 2
40 13 41 21 75 61 68 80 -2 6 -9 -3 -15 -20z"/>
<path d="M3980 792 c0 -4 17 -6 38 -4 58 5 62 10 10 11 -27 1 -48 -3 -48 -7z"/>
<path d="M3581 774 c0 -11 3 -14 6 -6 3 7 2 16 -1 19 -3 4 -6 -2 -5 -13z"/>
<path d="M3124 695 c-3 -8 -12 -34 -19 -57 -10 -35 -18 -44 -41 -49 l-29 -7
32 -1 c31 -1 33 1 49 59 l16 59 72 4 71 3 -73 2 c-56 2 -74 -1 -78 -13z"/>
<path d="M2542 633 l-2 -42 -47 -4 -48 -3 48 -2 c53 -2 61 6 54 60 -3 30 -4
29 -5 -9z"/>
<path d="M3004 629 c-3 -6 -25 -20 -48 -30 -22 -10 -35 -19 -27 -19 18 0 91
41 91 52 0 11 -8 10 -16 -3z"/>
<path d="M2321 613 c-1 -22 -4 -23 -143 -26 l-143 -3 143 -2 c118 -2 144 1
148 13 3 8 4 20 1 27 -3 7 -6 3 -6 -9z"/>
<path d="M3580 607 c0 -12 -12 -17 -47 -20 l-48 -3 48 -2 c35 -2 49 2 54 13 3
9 3 19 -1 22 -3 4 -6 -1 -6 -10z"/>
<path d="M3348 583 c18 -2 45 -2 60 0 15 2 0 4 -33 4 -33 0 -45 -2 -27 -4z"/>
<path d="M3743 583 c15 -2 39 -2 55 0 15 2 2 4 -28 4 -30 0 -43 -2 -27 -4z"/>
<path d="M3958 583 c39 -2 105 -2 145 0 39 1 7 3 -73 3 -80 0 -112 -2 -72 -3z"/>
<path d="M2858 573 c12 -2 30 -2 40 0 9 3 -1 5 -23 4 -22 0 -30 -2 -17 -4z"/>
</g>
</svg>
